<svg width="165" height="24" viewBox="0 0 165 24" fill="none" xmlns="http://www.w3.org/2000/svg">
<path d="M37.3651 2.54821L37.3651 11.467C37.3651 12.1677 37.1154 12.7678 36.6159 13.2673C36.1173 13.7659 35.5177 14.0152 34.8169 14.0152C34.1161 14.0152 33.5165 13.7659 33.0179 13.2673C32.5184 12.7678 32.2687 12.1677 32.2687 11.467L32.2687 2.54821C32.2687 1.84745 32.5184 1.24735 33.0179 0.7479C33.5165 0.2493 34.1161 2.84034e-07 34.8169 2.22772e-07C35.5177 1.6151e-07 36.1173 0.2493 36.6159 0.7479C37.1154 1.24735 37.3651 1.84745 37.3651 2.54821ZM21.598 0.222969L29.7205 2.51636L29.7205 14.0152L27.6819 14.0152C27.5333 14.0152 27.3846 13.9995 27.236 13.968C27.0873 13.9357 26.9387 13.8984 26.79 13.8559L17.9668 10.5751C17.6696 10.4689 17.4304 10.2778 17.2495 10.0017C17.0694 9.72568 16.9794 9.439 16.9794 9.14171C16.9794 8.69577 17.1332 8.33478 17.4406 8.05872C17.749 7.78266 18.1049 7.64464 18.5083 7.64464L21.8529 7.64464C21.959 7.64464 22.0385 7.64973 22.0911 7.65993C22.1446 7.67097 22.2139 7.69772 22.2988 7.74019L23.7322 8.28169C23.9021 8.34539 24.0719 8.33478 24.2418 8.24984C24.4117 8.1649 24.5179 8.0481 24.5603 7.89946C24.6028 7.72958 24.5922 7.57031 24.5285 7.42167C24.4648 7.27302 24.348 7.16685 24.1781 7.10314L22.2988 6.43423C22.2563 6.413 22.1926 6.39686 22.1077 6.38582C22.0227 6.37563 21.9484 6.37053 21.8847 6.37053L13.1571 6.37053C12.4776 6.37053 11.883 6.12633 11.3733 5.63792C10.8637 5.14951 10.6089 4.54431 10.6089 3.82232L20.0054 0.286675C20.2178 0.201735 20.4781 0.154169 20.7864 0.143976C21.0939 0.132934 21.3645 0.159263 21.598 0.222969Z" fill="#00A2FF"/>
<path d="M0 21.4518V12.533C0 11.8323 0.249725 11.2322 0.749174 10.7327C1.24777 10.2341 1.84745 9.98483 2.54821 9.98483C3.24897 9.98483 3.84865 10.2341 4.34725 10.7327C4.8467 11.2322 5.09642 11.8323 5.09642 12.533V21.4518C5.09642 22.1525 4.8467 22.7526 4.34725 23.2521C3.84865 23.7507 3.24897 24 2.54821 24C1.84745 24 1.24777 23.7507 0.749174 23.2521C0.249725 22.7526 0 22.1525 0 21.4518ZM15.7671 23.777L7.64463 21.4836V9.98483H9.6832C9.83185 9.98483 9.9805 10.0005 10.1291 10.032C10.2778 10.0642 10.4264 10.1016 10.5751 10.1441L19.3983 13.4249C19.6956 13.5311 19.9347 13.7222 20.1156 13.9983C20.2957 14.2743 20.3857 14.561 20.3857 14.8583C20.3857 15.3042 20.232 15.6652 19.9245 15.9413C19.6161 16.2173 19.2602 16.3554 18.8568 16.3554H15.5122C15.4061 16.3554 15.3266 16.3503 15.274 16.3401C15.2205 16.329 15.1512 16.3023 15.0663 16.2598L13.6329 15.7183C13.4631 15.6546 13.2932 15.6652 13.1233 15.7502C12.9534 15.8351 12.8472 15.9519 12.8048 16.1005C12.7623 16.2704 12.7729 16.4297 12.8366 16.5783C12.9003 16.727 13.0171 16.8331 13.187 16.8969L15.0663 17.5658C15.1088 17.587 15.1725 17.6031 15.2574 17.6142C15.3424 17.6244 15.4167 17.6295 15.4804 17.6295H24.208C24.8875 17.6295 25.4821 17.8737 25.9918 18.3621C26.5014 18.8505 26.7562 19.4557 26.7562 20.1777L17.3597 23.7133C17.1473 23.7983 16.887 23.8458 16.5787 23.856C16.2712 23.8671 16.0006 23.8407 15.7671 23.777Z" fill="#00A2FF"/>
<path d="M45.6364 7.13068V5.36364H54.9205V7.13068H51.3239V17H49.233V7.13068H45.6364ZM56.7983 17H54.5483L58.6449 5.36364H61.2472L65.3494 17H63.0994L59.9915 7.75H59.9006L56.7983 17ZM56.8722 12.4375H63.0085V14.1307H56.8722V12.4375ZM66.8821 17V5.36364H68.9901V15.233H74.1151V17H66.8821ZM75.9446 17V5.36364H78.0526V10.7102H78.1946L82.7344 5.36364H85.3082L80.8082 10.5852L85.348 17H82.8139L79.3423 12.0114L78.0526 13.5341V17H75.9446ZM88.8807 5.36364V17H86.7727V5.36364H88.8807ZM100.726 5.36364V17H98.8509L93.3679 9.07386H93.2713V17H91.1634V5.36364H93.0497L98.527 13.2955H98.6293V5.36364H100.726ZM110.818 9.07955C110.723 8.77273 110.593 8.49811 110.426 8.25568C110.263 8.00947 110.066 7.79924 109.835 7.625C109.608 7.45076 109.347 7.32008 109.051 7.23295C108.756 7.14205 108.434 7.09659 108.085 7.09659C107.46 7.09659 106.903 7.25379 106.415 7.56818C105.926 7.88258 105.542 8.3447 105.261 8.95455C104.985 9.56061 104.847 10.2992 104.847 11.1705C104.847 12.0492 104.985 12.7936 105.261 13.4034C105.538 14.0133 105.922 14.4773 106.415 14.7955C106.907 15.1098 107.479 15.267 108.131 15.267C108.722 15.267 109.233 15.1534 109.665 14.9261C110.1 14.6989 110.436 14.3769 110.67 13.9602C110.905 13.5398 111.023 13.0473 111.023 12.483L111.5 12.5568H108.341V10.9091H113.062V12.3068C113.062 13.303 112.85 14.1648 112.426 14.892C112.002 15.6193 111.419 16.1799 110.676 16.5739C109.934 16.964 109.081 17.1591 108.119 17.1591C107.047 17.1591 106.106 16.9186 105.295 16.4375C104.489 15.9527 103.858 15.2652 103.403 14.375C102.953 13.4811 102.727 12.4205 102.727 11.1932C102.727 10.2538 102.86 9.41477 103.125 8.67614C103.394 7.9375 103.769 7.31061 104.25 6.79545C104.731 6.27651 105.295 5.88258 105.943 5.61364C106.591 5.34091 107.295 5.20455 108.057 5.20455C108.701 5.20455 109.301 5.29924 109.858 5.48864C110.415 5.67424 110.909 5.93939 111.341 6.28409C111.777 6.62879 112.134 7.03788 112.415 7.51136C112.695 7.98485 112.879 8.50758 112.966 9.07955H110.818ZM119.07 17V5.36364H121.178V10.2898H126.57V5.36364H128.683V17H126.57V12.0568H121.178V17H119.07ZM132.47 17H130.22L134.317 5.36364H136.919L141.021 17H138.771L135.663 7.75H135.572L132.47 17ZM132.544 12.4375H138.68V14.1307H132.544V12.4375ZM152.116 5.36364V17H150.241L144.759 9.07386H144.662V17H142.554V5.36364H144.44L149.918 13.2955H150.02V5.36364H152.116ZM158.357 17H154.413V5.36364H158.436C159.591 5.36364 160.584 5.59659 161.413 6.0625C162.247 6.52462 162.887 7.18939 163.334 8.05682C163.781 8.92424 164.004 9.96212 164.004 11.1705C164.004 12.3826 163.779 13.4242 163.328 14.2955C162.881 15.1667 162.235 15.8352 161.391 16.3011C160.55 16.767 159.538 17 158.357 17ZM156.521 15.1761H158.254C159.065 15.1761 159.741 15.0284 160.283 14.733C160.824 14.4337 161.232 13.9886 161.504 13.3977C161.777 12.803 161.913 12.0606 161.913 11.1705C161.913 10.2803 161.777 9.54167 161.504 8.95455C161.232 8.36364 160.828 7.92235 160.294 7.63068C159.764 7.33523 159.105 7.1875 158.317 7.1875H156.521V15.1761Z" fill="#151515"/>
</svg>
